<?xml version="1.0" encoding="utf-8"?>
<!-- Generator: Adobe Illustrator 23.0.1, SVG Export Plug-In . SVG Version: 6.00 Build 0)  -->
<svg version="1.1" id="Capa_1" xmlns="http://www.w3.org/2000/svg" xmlns:xlink="http://www.w3.org/1999/xlink" x="0px" y="0px"
	 viewBox="0 0 65 65" style="enable-background:new 0 0 65 65;" xml:space="preserve">
<style type="text/css">
	.st0{fill:#F9E516;}
	.st1{fill:#2D2927;}
	.st2{fill:#C12A21;}
</style>
<circle class="st0" cx="32.5" cy="32.5" r="31.6"/>
<g>
	<path class="st1" d="M18.3,30.6c-0.2-0.9-0.6-1.7-1.1-2.4c-0.5-0.7-1.2-1.3-2-1.7c-0.8-0.4-1.8-0.6-2.8-0.6c-1,0-1.8,0.2-2.7,0.5
		c-0.8,0.3-1.5,0.8-2.1,1.4c-0.6,0.6-1,1.3-1.3,2.1c-0.3,0.8-0.5,1.7-0.5,2.7c0,1,0.1,1.9,0.5,2.7c0.3,0.8,0.7,1.5,1.3,2.1
		c0.6,0.6,1.3,1.1,2.1,1.4c0.8,0.3,1.7,0.5,2.7,0.5c1.4,0,2.7-0.3,3.7-1c0.5-0.3,1-0.8,1.4-1.3c0.4-0.5,0.7-1.2,0.9-2l0.1-0.3
		c0,0,0-0.1-0.1-0.1h-3.3c-0.2,0-0.2,0.1-0.2,0.1l0,0.1c0,0.1-0.1,0.3-0.2,0.4c-0.1,0.2-0.3,0.3-0.5,0.5c-0.4,0.3-1,0.4-1.6,0.4
		c-0.4,0-0.8-0.1-1.2-0.2c-0.3-0.1-0.6-0.3-0.8-0.5c-0.2-0.2-0.4-0.5-0.5-0.8c-0.1-0.3-0.2-0.6-0.2-1h8.6c0.1,0,0.1-0.2,0.1-0.2
		l0-0.1c0-0.2,0-0.4,0-0.6C18.6,32,18.5,31.3,18.3,30.6 M10.3,29.8c0.2-0.2,0.4-0.4,0.8-0.6c0.3-0.2,0.7-0.2,1.2-0.2
		c0.4,0,0.7,0.1,1,0.1c0.3,0.1,0.5,0.2,0.6,0.4c0.3,0.3,0.5,0.8,0.7,1.4H9.8c0-0.1,0.1-0.3,0.1-0.4C10,30.3,10.1,30.1,10.3,29.8"/>
	<path class="st1" d="M30.8,38.9l-4.6-6.7l4.2-6c0,0,0.1-0.1-0.1-0.1H26c-0.1,0-0.2,0.1-0.2,0.1L24,29.1l-1.9-2.8
		c0,0-0.1-0.1-0.2-0.1h-4.4c-0.1,0-0.1,0.1-0.1,0.1l0.3,0.4l3.9,5.6l-4.5,6.6c0,0-0.1,0.1,0.1,0.1h4.2c0.2,0,0.2-0.1,0.2-0.1
		l2.3-3.4l2.3,3.4c0,0,0.1,0.1,0.2,0.1h4.3C30.9,39,30.8,38.9,30.8,38.9"/>
	<path class="st1" d="M36.2,26.2h-4.9c-0.2,0-0.1,0.1-0.1,0.1l0.7,12.6c0,0,0,0.2,0.1,0.2h3.5c0.1,0,0.1-0.2,0.1-0.2l0.7-12.5
		C36.3,26.3,36.3,26.2,36.2,26.2"/>
	<path class="st1" d="M58.6,29.8c-0.3-0.8-0.8-1.6-1.3-2.1c-0.6-0.6-1.3-1.1-2.1-1.4c-0.8-0.3-1.7-0.5-2.7-0.5c-1,0-1.9,0.2-2.7,0.5
		c-0.8,0.3-1.5,0.8-2.1,1.4c-0.6,0.6-1,1.3-1.3,2.1c-0.3,0.8-0.5,1.8-0.5,2.8c0,1,0.2,1.9,0.5,2.8c0.3,0.8,0.8,1.5,1.3,2.1
		c0.6,0.6,1.3,1.1,2.1,1.4c0.8,0.3,1.7,0.5,2.7,0.5c1,0,1.9-0.2,2.7-0.5c0.8-0.3,1.5-0.8,2.1-1.4c0.6-0.6,1-1.3,1.3-2.1
		c0.3-0.8,0.5-1.7,0.5-2.8C59.1,31.6,59,30.7,58.6,29.8 M53.7,35.9c-0.3,0.2-0.7,0.3-1.3,0.3c-0.5,0-0.9-0.1-1.3-0.3
		c-0.3-0.2-0.6-0.4-0.8-0.8c-0.2-0.3-0.4-0.7-0.4-1.1c-0.1-0.4-0.1-0.9-0.1-1.4c0-0.5,0-0.9,0.1-1.4c0.1-0.4,0.2-0.8,0.4-1.1
		c0.2-0.3,0.5-0.6,0.8-0.8c0.3-0.2,0.7-0.3,1.3-0.3c0.5,0,0.9,0.1,1.3,0.3c0.3,0.2,0.6,0.5,0.8,0.8c0.2,0.3,0.4,0.7,0.4,1.1
		c0.1,0.5,0.1,0.9,0.1,1.4c0,0.5,0,0.9-0.1,1.4c-0.1,0.4-0.2,0.8-0.4,1.1C54.3,35.4,54.1,35.7,53.7,35.9"/>
	<path class="st2" d="M36.1,42.1c0-1.3-1.1-2.4-2.4-2.4c-1.3,0-2.4,1.1-2.4,2.4c0,1.3,1.1,2.4,2.4,2.4C35,44.5,36.1,43.4,36.1,42.1"
		/>
	<path class="st1" d="M12.8,22.6L11,25c0,0-0.1,0.1,0,0.1h2.2c0.2,0,0.3-0.1,0.3-0.1l3.1-2.4c0,0,0.1-0.1,0-0.1h-3.5
		C12.9,22.5,12.8,22.6,12.8,22.6"/>
	<path class="st1" d="M62.2,27.4c0,0.3-0.1,0.5-0.2,0.8c-0.1,0.2-0.3,0.4-0.6,0.6c-0.2,0.1-0.5,0.2-0.8,0.2c-0.3,0-0.5-0.1-0.8-0.2
		c-0.2-0.1-0.4-0.3-0.6-0.6c-0.1-0.2-0.2-0.5-0.2-0.8c0-0.3,0.1-0.5,0.2-0.8c0.1-0.2,0.3-0.4,0.6-0.6c0.2-0.1,0.5-0.2,0.8-0.2
		c0.3,0,0.5,0.1,0.8,0.2c0.2,0.1,0.4,0.3,0.6,0.6C62.2,26.9,62.2,27.2,62.2,27.4 M61.9,27.4c0-0.4-0.1-0.7-0.4-0.9
		c-0.2-0.2-0.5-0.4-0.9-0.4c-0.4,0-0.7,0.1-0.9,0.4c-0.2,0.2-0.4,0.5-0.4,0.9c0,0.3,0.1,0.7,0.4,0.9c0.2,0.2,0.5,0.4,0.9,0.4
		c0.3,0,0.6-0.1,0.9-0.4C61.8,28.1,61.9,27.8,61.9,27.4 M60,26.6h0.8c0.2,0,0.4,0,0.5,0.1c0.1,0.1,0.1,0.2,0.1,0.3
		c0,0.1,0,0.2-0.1,0.3c-0.1,0.1-0.2,0.1-0.3,0.2c0.1,0,0.1,0.1,0.1,0.1c0,0,0.1,0.1,0.1,0.2c0,0,0.1,0.2,0.3,0.5h-0.5
		c-0.2-0.3-0.3-0.5-0.3-0.6c-0.1-0.1-0.1-0.1-0.2-0.1c0,0,0,0,0,0v0.7H60V26.6z M60.4,27.3h0.2c0.1,0,0.2,0,0.3-0.1
		c0,0,0.1-0.1,0.1-0.2c0-0.1,0-0.1-0.1-0.1c0,0-0.1-0.1-0.2-0.1h-0.2V27.3z"/>
	<g>
		<path class="st1" d="M43.2,44.4h-1.2v-0.3c-0.3,0.3-0.7,0.4-1.1,0.4c-0.5,0-0.9-0.2-1.2-0.5c-0.3-0.4-0.5-0.8-0.5-1.4
			c0-0.6,0.2-1,0.5-1.4c0.3-0.4,0.8-0.5,1.2-0.5c0.5,0,0.8,0.1,1.1,0.4v-0.3h1.2V44.4z M41.8,43.3c0.2-0.2,0.3-0.4,0.3-0.7
			c0-0.3-0.1-0.5-0.3-0.7c-0.2-0.2-0.4-0.3-0.6-0.3c-0.3,0-0.5,0.1-0.6,0.3c-0.2,0.2-0.2,0.4-0.2,0.7c0,0.3,0.1,0.5,0.2,0.7
			c0.2,0.2,0.4,0.3,0.6,0.3C41.4,43.6,41.7,43.5,41.8,43.3z"/>
		<path class="st1" d="M47.2,41.1c0.3,0.3,0.4,0.6,0.4,1.1v2.2h-1.1v-2c0-0.2-0.1-0.4-0.2-0.5c-0.1-0.1-0.3-0.2-0.4-0.2
			c-0.2,0-0.4,0.1-0.6,0.2c-0.1,0.2-0.2,0.4-0.2,0.8v1.7h-1.2v-3.6h1.2v0.3c0.3-0.3,0.7-0.5,1.1-0.5C46.6,40.7,47,40.8,47.2,41.1z
			 M45.2,40.3h-0.7c0-0.4,0.1-0.6,0.2-0.8c0.2-0.2,0.4-0.3,0.6-0.3c0.2,0,0.3,0,0.5,0.1c0.2,0.1,0.3,0.1,0.4,0.1
			c0.1,0,0.2-0.1,0.2-0.3h0.7c0,0.4-0.1,0.7-0.2,0.8c-0.2,0.2-0.4,0.3-0.6,0.3c-0.2,0-0.3,0-0.5-0.1c-0.2-0.1-0.3-0.1-0.4-0.1
			C45.3,40,45.2,40.1,45.2,40.3z"/>
		<path class="st1" d="M51.4,41.3c0.4,0.4,0.6,0.8,0.6,1.4c0,0.6-0.2,1-0.6,1.4c-0.4,0.4-0.9,0.5-1.4,0.5c-0.6,0-1-0.2-1.4-0.5
			c-0.4-0.4-0.6-0.8-0.6-1.4c0-0.6,0.2-1,0.6-1.4c0.4-0.4,0.9-0.5,1.4-0.5C50.6,40.7,51,40.9,51.4,41.3z M50.6,43.3
			c0.2-0.2,0.3-0.4,0.3-0.7c0-0.3-0.1-0.5-0.3-0.7c-0.2-0.2-0.4-0.3-0.6-0.3c-0.2,0-0.4,0.1-0.6,0.3c-0.2,0.2-0.3,0.4-0.3,0.7
			c0,0.3,0.1,0.5,0.3,0.7c0.2,0.2,0.4,0.3,0.6,0.3C50.2,43.6,50.4,43.5,50.6,43.3z"/>
		<path class="st1" d="M53.3,43.3c0,0.3,0.3,0.4,0.6,0.4c0.1,0,0.3,0,0.3-0.1c0.1-0.1,0.1-0.1,0.1-0.2c0-0.1-0.1-0.2-0.4-0.3
			L53.3,43c-0.7-0.1-1.1-0.5-1.1-1.1c0-0.4,0.1-0.7,0.4-0.9s0.7-0.3,1.1-0.3c0.4,0,0.8,0.1,1.1,0.3c0.3,0.2,0.5,0.4,0.5,0.8L54.4,42
			c0-0.1-0.1-0.2-0.2-0.3c-0.1-0.1-0.2-0.1-0.4-0.1c-0.1,0-0.2,0-0.3,0.1c-0.1,0.1-0.1,0.1-0.1,0.2c0,0.1,0.1,0.2,0.3,0.3l0.8,0.2
			c0.3,0.1,0.6,0.2,0.7,0.4c0.2,0.2,0.3,0.4,0.3,0.7c0,0.4-0.2,0.7-0.5,0.9c-0.3,0.2-0.7,0.3-1.2,0.3c-0.5,0-0.8-0.1-1.1-0.3
			c-0.3-0.2-0.5-0.4-0.6-0.8L53.3,43.3z"/>
	</g>
	<path class="st1" d="M43.4,24.7c-0.2,0.2-0.9,0.8-2.3,3c-3.4,4.9-3.9,10.2-3.9,11.3h5.7c0-4.3,1-9.7,5.9-14.2v-4.3H34.2v4.3
		L43.4,24.7L43.4,24.7z"/>
</g>
</svg>
